<?xml version="1.0" encoding="UTF-8"?>
<svg xmlns="http://www.w3.org/2000/svg" xmlns:xlink="http://www.w3.org/1999/xlink" viewBox="0 0 50 50" width="50px" height="50px">
<g id="surface92603803">
<path style=" stroke:none;fill-rule:nonzero;fill:rgb(89.803922%,89.019608%,84.313726%);fill-opacity:1;" d="M 25 7.519531 C 20.808594 7.519531 17.398438 10.929688 17.398438 15.121094 L 17.398438 16.640625 L 23.480469 16.640625 L 23.480469 12.839844 L 26.519531 12.839844 L 26.519531 16.640625 L 32.601562 16.640625 L 32.601562 15.121094 C 32.601562 10.929688 29.191406 7.519531 25 7.519531 Z M 19.121094 13.601562 L 21.960938 13.601562 L 21.960938 15.121094 L 18.921875 15.121094 C 18.921875 14.59375 18.996094 14.085938 19.121094 13.601562 Z M 28.800781 14.359375 C 29.21875 14.359375 29.558594 14.703125 29.558594 15.121094 C 29.558594 15.539062 29.21875 15.878906 28.800781 15.878906 C 28.382812 15.878906 28.039062 15.539062 28.039062 15.121094 C 28.039062 14.703125 28.382812 14.359375 28.800781 14.359375 Z M 13.601562 18.160156 C 13.179688 18.160156 12.839844 18.5 12.839844 18.921875 L 12.839844 20.441406 L 12.078125 20.441406 L 12.078125 21.960938 L 12.839844 21.960938 L 12.839844 33.878906 C 12.839844 33.960938 12.855469 34.042969 12.882812 34.121094 L 13.601562 36.398438 L 15.878906 36.398438 L 15.878906 18.921875 C 15.878906 18.5 15.542969 18.160156 15.121094 18.160156 Z M 18.160156 18.160156 C 17.738281 18.160156 17.398438 18.5 17.398438 18.921875 L 17.398438 34.121094 C 17.398438 34.539062 17.738281 34.878906 18.160156 34.878906 L 31.839844 34.878906 C 32.261719 34.878906 32.601562 34.539062 32.601562 34.121094 L 32.601562 18.921875 C 32.601562 18.5 32.261719 18.160156 31.839844 18.160156 Z M 34.878906 18.160156 C 34.457031 18.160156 34.121094 18.5 34.121094 18.921875 L 34.121094 36.398438 L 36.398438 36.398438 L 37.121094 34.121094 C 37.144531 34.042969 37.160156 33.960938 37.160156 33.878906 L 37.160156 21.960938 L 37.921875 21.960938 L 37.921875 20.441406 L 37.160156 20.441406 L 37.160156 18.921875 C 37.160156 18.5 36.820312 18.160156 36.398438 18.160156 Z M 19.679688 20.441406 L 30.320312 20.441406 L 30.320312 21.960938 L 19.679688 21.960938 Z M 23.480469 24.238281 L 26.519531 24.238281 L 26.519531 33.359375 L 23.480469 33.359375 Z M 29.558594 31.839844 L 31.078125 31.839844 L 31.078125 33.359375 L 29.558594 33.359375 Z M 19.019531 36.398438 L 19.808594 37.582031 C 19.949219 37.792969 20.183594 37.921875 20.441406 37.921875 L 29.558594 37.921875 C 29.816406 37.921875 30.050781 37.792969 30.191406 37.582031 L 30.980469 36.398438 Z M 13.601562 37.921875 L 12.160156 40.617188 C 12.105469 40.726562 12.078125 40.839844 12.078125 40.960938 L 12.078125 41.71875 C 12.078125 42.136719 12.417969 42.480469 12.839844 42.480469 L 15.121094 42.480469 C 15.542969 42.480469 15.878906 42.136719 15.878906 41.71875 L 15.878906 37.921875 Z M 34.121094 37.921875 L 34.121094 41.71875 C 34.121094 42.136719 34.457031 42.480469 34.878906 42.480469 L 37.160156 42.480469 C 37.582031 42.480469 37.921875 42.136719 37.921875 41.71875 L 37.921875 40.960938 C 37.921875 40.839844 37.894531 40.726562 37.839844 40.617188 L 36.398438 37.921875 Z M 34.121094 37.921875 "/>
</g>
</svg>
